<?xml version="1.0" encoding="UTF-8"?>
<svg xmlns="http://www.w3.org/2000/svg" xmlns:xlink="http://www.w3.org/1999/xlink" width="232.76pt" height="26.3pt" viewBox="0 0 232.76 26.3" version="1.1">
<g id="surface1">
<path style=" stroke:none;fill-rule:nonzero;fill:rgb(13.719177%,9.423828%,8.227539%);fill-opacity:1;" d="M 72.617188 13.410156 L 72.617188 17.453125 C 72.617188 17.601563 68.851563 19.3125 65.925781 19.3125 C 63.585938 19.3125 61.3125 18.566406 59.363281 16.773438 C 57.542969 15.089844 56.148438 12.78125 56.148438 9.742188 C 56.148438 4.652344 60.296875 0.148438 65.851563 0 L 66.136719 0 C 68.804688 0 70.859375 1.207031 71.734375 2.042969 C 72.039063 2.304688 72.230469 2.53125 72.230469 2.703125 L 72.230469 4.519531 L 72.039063 4.519531 C 72.039063 4.5 72.039063 4.480469 72.03125 4.460938 C 71.972656 4.167969 71.464844 2.234375 69.203125 1.109375 C 68.488281 0.785156 67.628906 0.558594 66.546875 0.488281 C 60.800781 0.136719 59.363281 6.394531 59.363281 9.742188 C 59.363281 13.589844 62.183594 18.753906 66.421875 18.753906 C 69.851563 18.753906 71.421875 16.296875 72.070313 14.632813 C 72.195313 14.222656 72.320313 13.8125 72.433594 13.410156 Z M 79.921875 18.539063 L 79.921875 0.4375 L 75.875 0.4375 L 75.875 0.589844 C 76.042969 0.589844 77.515625 0.851563 77.515625 1.738281 L 77.515625 18.539063 C 77.515625 19.046875 77.007813 19.121094 76.878906 19.121094 L 76.878906 19.289063 L 80.519531 19.289063 L 80.519531 19.121094 C 80.378906 19.121094 79.921875 19.046875 79.921875 18.539063 M 219.980469 18.539063 L 219.980469 0.4375 L 215.945313 0.4375 L 215.945313 0.589844 C 216.105469 0.589844 217.59375 0.851563 217.59375 1.738281 L 217.59375 18.539063 C 217.59375 19.046875 217.070313 19.121094 216.949219 19.121094 L 216.949219 19.289063 L 220.585938 19.289063 L 220.585938 19.121094 C 220.445313 19.121094 219.980469 19.046875 219.980469 18.539063 M 16.167969 0.660156 L 16.167969 0.824219 C 16.972656 0.824219 17.347656 1.300781 17.117188 1.851563 L 11.414063 15.863281 L 5.789063 2.214844 C 5.363281 1.164063 6.105469 0.824219 7.003906 0.824219 L 7.003906 0.660156 L 0 0.660156 L 0 0.824219 C 1.121094 0.824219 2.414063 1.304688 2.941406 2.601563 L 9.804688 19.3125 L 10.503906 19.3125 L 17.523438 2.019531 C 17.824219 1.300781 18.671875 0.824219 19.398438 0.824219 L 19.398438 0.660156 Z M 228.324219 19.289063 C 231.140625 19.289063 232.761719 17.492188 232.761719 15.59375 C 232.761719 14.027344 231.503906 13.085938 229.777344 12.5625 L 227.730469 11.929688 C 226.105469 11.460938 225.25 10.988281 225.25 9.878906 C 225.25 8.628906 226.28125 7.828125 228.0625 7.828125 C 229.964844 7.828125 230.664063 9.207031 231.195313 10.75 L 231.355469 10.75 L 231.355469 8.582031 C 231.355469 8.449219 229.796875 7.46875 228.0625 7.46875 C 225.753906 7.46875 224.050781 8.941406 224.050781 10.882813 C 224.050781 13.179688 225.664063 13.6875 226.820313 14.054688 L 228.992188 14.742188 C 229.9375 15.054688 230.804688 15.453125 230.804688 16.773438 C 230.804688 18.28125 229.71875 18.925781 228.515625 18.925781 C 225.695313 18.925781 224.601563 16.921875 224.105469 15.296875 L 223.953125 15.296875 L 223.953125 17.746094 C 223.953125 17.855469 226.082031 19.289063 228.324219 19.289063 M 171.144531 17.992188 C 171.460938 18.761719 172.445313 19.121094 172.925781 19.121094 L 172.925781 19.289063 L 167.25 19.289063 L 167.25 19.121094 C 167.492188 19.121094 168.488281 18.890625 168.144531 18.023438 L 165.796875 12.257813 L 159.039063 12.257813 L 156.601563 18.261719 C 156.304688 18.976563 157.21875 19.121094 157.429688 19.121094 L 157.429688 19.289063 L 154.6875 19.289063 L 154.6875 19.121094 C 155.007813 19.121094 155.847656 19.015625 156.125 18.351563 L 156.125 18.339844 L 163.34375 0.558594 L 164.011719 0.558594 L 171.144531 17.980469 Z M 162.417969 4.007813 L 159.425781 11.363281 L 165.414063 11.363281 Z M 182.351563 7.515625 C 179.992188 7.515625 178.988281 9.414063 178.675781 10.425781 L 178.636719 10.425781 L 178.636719 7.820313 L 175.679688 7.820313 L 175.679688 7.945313 C 175.808594 7.945313 176.277344 8.105469 176.277344 8.449219 L 176.277344 18.675781 C 176.277344 19.035156 175.824219 19.121094 175.679688 19.121094 L 175.679688 19.289063 L 179.269531 19.289063 L 179.269531 19.121094 C 179.117188 19.121094 178.675781 19.054688 178.675781 18.738281 L 178.675781 12.617188 C 178.675781 9.742188 180.421875 8.035156 181.589844 8.035156 C 182.222656 8.035156 182.566406 8.449219 182.566406 9.140625 L 182.566406 10.355469 C 182.566406 10.808594 182.886719 11.101563 183.710938 11.101563 C 184.425781 11.101563 184.828125 10.808594 184.828125 10.355469 C 184.828125 8.332031 184.085938 7.515625 182.351563 7.515625 M 31.394531 18.648438 C 30.917969 18.976563 30.25 19.289063 29.296875 19.289063 C 27.511719 19.289063 26.835938 18.546875 26.527344 17.273438 L 26.527344 17.199219 L 26.507813 17.347656 C 25.4375 18.539063 23.867188 19.269531 22.21875 19.269531 C 20.460938 19.269531 19.164063 18.359375 19.164063 16.628906 C 19.164063 13.394531 23.867188 12.714844 26.507813 12.847656 L 26.59375 12.847656 C 26.59375 11.9375 26.585938 11.054688 26.585938 10.503906 C 26.585938 8.832031 26.105469 7.828125 24.265625 7.828125 C 23.03125 7.828125 21.695313 8.164063 21.695313 9.417969 L 21.695313 10.609375 C 21.695313 11.066406 21.304688 11.460938 20.609375 11.460938 C 19.367188 11.460938 19.398438 10.988281 19.398438 10.339844 C 19.398438 8.808594 21.414063 7.46875 24.265625 7.46875 C 27.699219 7.46875 28.90625 9.207031 28.90625 11.035156 L 28.90625 17.332031 C 28.90625 18.308594 29.28125 18.578125 29.882813 18.691406 C 30.167969 18.761719 30.886719 18.761719 31.28125 18.492188 Z M 26.40625 16.644531 C 26.507813 16.382813 26.5625 16.089844 26.585938 15.765625 C 26.59375 15.453125 26.59375 15.078125 26.601563 14.667969 C 26.601563 14.621094 26.609375 14.554688 26.609375 14.515625 L 26.609375 13.210938 C 24.78125 13.210938 21.582031 13.550781 21.582031 15.78125 C 21.582031 17.433594 22.777344 18.253906 24.148438 18.253906 C 25.175781 18.253906 26.042969 17.515625 26.40625 16.644531 M 45.664063 18.539063 L 45.664063 10.988281 C 45.664063 8.582031 43.960938 7.515625 41.496094 7.515625 C 41.328125 7.515625 41.152344 7.53125 40.984375 7.539063 C 40.925781 7.539063 40.875 7.546875 40.824219 7.554688 C 40.703125 7.554688 40.59375 7.578125 40.476563 7.601563 C 40.425781 7.609375 40.371094 7.613281 40.324219 7.625 C 40.214844 7.648438 40.097656 7.660156 40.003906 7.703125 C 39.953125 7.71875 39.914063 7.726563 39.871094 7.730469 C 39.742188 7.761719 39.628906 7.820313 39.511719 7.863281 C 39.484375 7.863281 39.472656 7.863281 39.4375 7.863281 C 38.949219 8.074219 38.492188 8.328125 38.066406 8.703125 L 38.066406 8.707031 C 37.96875 8.773438 37.894531 8.847656 37.820313 8.941406 C 37.808594 8.945313 37.800781 8.945313 37.789063 8.972656 C 37.574219 9.167969 37.390625 9.414063 37.214844 9.683594 C 37.199219 9.699219 37.191406 9.699219 37.171875 9.726563 C 37.144531 9.78125 37.097656 9.847656 37.058594 9.910156 L 37.058594 7.820313 L 33.726563 7.820313 L 33.726563 7.945313 C 33.820313 7.945313 34.304688 8.015625 34.304688 8.449219 L 34.304688 18.605469 C 34.304688 18.988281 33.832031 19.121094 33.726563 19.121094 L 33.726563 19.289063 L 37.277344 19.289063 L 37.277344 19.121094 C 37.199219 19.121094 36.703125 18.957031 36.703125 18.527344 L 36.703125 12.703125 C 36.703125 12.503906 36.707031 12.320313 36.722656 12.136719 C 36.738281 12.070313 36.746094 12.007813 36.757813 11.9375 C 36.78125 11.828125 36.792969 11.703125 36.808594 11.578125 C 36.824219 11.542969 36.839844 11.480469 36.859375 11.417969 C 37.40625 9.269531 39.316406 8.175781 40.808594 8.199219 L 40.882813 8.199219 C 42.621094 8.199219 43.085938 8.695313 43.203125 10.355469 C 43.234375 10.652344 43.253906 10.964844 43.253906 11.289063 L 43.253906 18.527344 C 43.253906 19 42.769531 19.121094 42.628906 19.121094 L 42.628906 19.289063 L 46.230469 19.289063 L 46.230469 19.121094 C 46.085938 19.121094 45.664063 19.015625 45.664063 18.539063 M 119.019531 0.0664063 C 117.410156 0.0664063 115.859375 1.046875 114.886719 2.191406 C 114.171875 3.042969 113.632813 4.082031 113.632813 6.5 L 113.632813 7.152344 C 113.511719 7.695313 112.902344 8.484375 112.273438 8.484375 C 112.273438 8.484375 113.28125 8.484375 113.632813 8.148438 L 113.632813 18.75 C 113.632813 19.046875 113.1875 19.199219 113.0625 19.199219 L 113.0625 19.34375 L 116.589844 19.34375 L 116.589844 19.199219 C 116.484375 19.199219 116.039063 19.121094 116.039063 18.761719 L 116.039063 8.558594 L 118.792969 8.558594 L 118.792969 7.863281 L 116.039063 7.863281 L 116.039063 4.265625 C 116.039063 1.617188 117.316406 0.421875 118.851563 0.421875 C 119.550781 0.421875 120.394531 0.691406 120.394531 1.617188 L 120.394531 2.972656 C 120.394531 3.410156 120.714844 3.695313 121.535156 3.695313 C 122.253906 3.695313 122.65625 3.410156 122.65625 2.972656 C 122.65625 1.40625 122.070313 0.0664063 119.019531 0.0664063 M 147.34375 11.441406 C 146.171875 11.46875 144.710938 12.761719 143.84375 13.855469 C 143.4375 14.359375 142.601563 15.734375 142.070313 16.503906 C 143.527344 18.03125 145.074219 19.144531 146.613281 18.09375 L 146.71875 18.261719 C 146.027344 18.820313 145.226563 19.34375 143.867188 19.34375 C 142.410156 19.34375 141.554688 18.890625 140.757813 18.167969 L 140.753906 18.167969 C 140.753906 18.167969 140.742188 18.167969 140.742188 18.144531 C 140.683594 18.101563 140.636719 18.042969 140.589844 18 C 139.648438 18.769531 138.632813 19.375 136.460938 19.449219 C 132.023438 19.625 130.855469 17.003906 130.855469 15.324219 C 130.855469 13.023438 132.878906 11.972656 134.113281 11.582031 C 134.136719 11.578125 134.140625 11.578125 134.144531 11.578125 C 134.304688 11.542969 134.449219 11.503906 134.570313 11.480469 C 134.671875 11.460938 134.761719 11.441406 134.859375 11.417969 C 134.5 11.007813 134.484375 10.992188 134.484375 10.992188 C 133.988281 10.480469 133.324219 9.625 133.324219 8.449219 C 133.324219 6.394531 135.003906 4.992188 137.15625 4.992188 C 139.441406 4.992188 140.800781 6.210938 140.800781 8.046875 C 140.800781 8.148438 140.800781 8.253906 140.785156 8.351563 C 140.777344 8.410156 140.761719 8.46875 140.757813 8.515625 C 140.753906 8.542969 140.753906 8.546875 140.742188 8.558594 C 140.675781 8.796875 140.59375 9.011719 140.46875 9.226563 C 140.460938 9.226563 140.449219 9.242188 140.449219 9.242188 C 140.425781 9.304688 140.382813 9.347656 140.351563 9.402344 C 140.269531 9.503906 140.179688 9.589844 140.09375 9.683594 C 139.335938 10.488281 138.386719 10.808594 137.433594 11.066406 L 138.402344 12.230469 C 139.648438 13.734375 140.582031 14.867188 141.800781 16.214844 C 141.910156 16.082031 142.011719 15.941406 142.101563 15.792969 C 143.390625 13.625 143.488281 11.214844 143.488281 11.214844 L 147.34375 11.214844 Z M 136.332031 9.800781 C 136.632813 10.132813 136.886719 10.449219 137.15625 10.742188 C 138.371094 10.261719 138.855469 9.597656 139.019531 8.015625 C 139.019531 6.722656 138.195313 5.28125 136.769531 5.28125 C 136.695313 5.28125 136.632813 5.289063 136.5625 5.289063 C 135.351563 5.464844 134.089844 7.191406 136.332031 9.800781 M 140.136719 17.972656 C 140.210938 17.90625 140.292969 17.851563 140.382813 17.757813 C 140.375 17.746094 140.351563 17.707031 140.324219 17.679688 C 137.375 14.285156 135.914063 12.609375 135.191406 11.792969 C 134.910156 11.9375 134.636719 12.085938 134.363281 12.292969 C 133.988281 12.609375 133.6875 12.980469 133.503906 13.433594 L 133.492188 13.445313 L 133.492188 13.453125 C 133.363281 13.839844 133.300781 14.265625 133.300781 14.722656 C 133.3125 15.566406 133.945313 16.757813 134.808594 17.707031 C 135.878906 18.679688 137.601563 19.3125 139.398438 18.40625 C 139.429688 18.398438 139.457031 18.390625 139.484375 18.367188 C 139.546875 18.332031 139.628906 18.296875 139.6875 18.261719 C 139.847656 18.171875 140 18.074219 140.136719 17.972656 M 95.0625 16.828125 C 94.332031 17.980469 92.863281 19.34375 89.765625 19.34375 C 86.859375 19.34375 84.074219 17.015625 84.074219 13.492188 C 84.074219 10.847656 85.902344 8.332031 88.484375 7.691406 L 88.5 7.691406 C 88.898438 7.578125 89.320313 7.53125 89.765625 7.53125 C 89.914063 7.53125 90.0625 7.539063 90.214844 7.546875 L 90.230469 7.539063 L 90.253906 7.546875 C 90.617188 7.558594 90.984375 7.613281 91.332031 7.691406 L 91.351563 7.691406 C 93.738281 8.199219 95.503906 9.847656 95.503906 12.566406 L 95.503906 12.660156 L 86.84375 12.660156 C 86.851563 13.03125 86.90625 13.734375 86.96875 14.222656 C 87.3125 16.613281 89.097656 18.769531 91.332031 18.769531 C 92.066406 18.769531 92.707031 18.546875 93.265625 18.191406 C 93.640625 17.898438 94.007813 17.46875 94.347656 16.828125 Z M 87.96875 9.285156 C 87.640625 9.980469 87.429688 10.921875 87.316406 12.101563 L 93.097656 12.101563 C 93.070313 10.3125 92.324219 7.941406 90.179688 7.941406 L 90.078125 7.941406 C 90.035156 7.941406 90 7.941406 89.96875 7.945313 L 89.84375 7.945313 C 89.125 8.035156 88.433594 8.476563 87.96875 9.285156 M 109.015625 16.828125 C 108.277344 17.980469 106.824219 19.34375 103.710938 19.34375 C 100.808594 19.34375 98.023438 17.015625 98.023438 13.492188 C 98.023438 10.847656 99.847656 8.332031 102.421875 7.691406 L 102.441406 7.691406 C 102.851563 7.578125 103.273438 7.53125 103.710938 7.53125 C 103.851563 7.53125 104.007813 7.539063 104.160156 7.546875 L 104.179688 7.539063 L 104.199219 7.546875 C 104.5625 7.558594 104.921875 7.613281 105.273438 7.691406 L 105.308594 7.691406 C 107.683594 8.199219 109.453125 9.847656 109.453125 12.566406 L 109.453125 12.660156 L 100.789063 12.660156 C 100.804688 13.03125 100.84375 13.734375 100.910156 14.222656 C 101.257813 16.613281 103.050781 18.769531 105.285156 18.769531 C 106.019531 18.769531 106.65625 18.546875 107.210938 18.191406 C 107.601563 17.898438 107.953125 17.46875 108.296875 16.828125 Z M 101.921875 9.285156 C 101.582031 9.980469 101.382813 10.921875 101.265625 12.101563 L 107.050781 12.101563 C 107.019531 10.3125 106.277344 7.941406 104.117188 7.941406 L 104.023438 7.941406 C 103.984375 7.941406 103.960938 7.941406 103.914063 7.945313 L 103.789063 7.945313 C 103.0625 8.035156 102.390625 8.476563 101.921875 9.285156 M 213.496094 16.757813 C 212.769531 17.894531 211.316406 19.269531 208.199219 19.269531 C 205.292969 19.269531 202.523438 16.949219 202.523438 13.425781 C 202.523438 10.777344 204.347656 8.253906 206.914063 7.609375 L 206.925781 7.609375 L 206.941406 7.601563 C 207.339844 7.507813 207.761719 7.4375 208.199219 7.4375 C 208.347656 7.4375 208.503906 7.457031 208.648438 7.46875 L 208.6875 7.46875 C 209.050781 7.480469 209.421875 7.539063 209.761719 7.609375 L 209.796875 7.609375 C 212.171875 8.121094 213.941406 9.761719 213.941406 12.472656 L 213.941406 12.582031 L 205.289063 12.582031 C 205.289063 12.964844 205.335938 13.644531 205.414063 14.152344 C 205.757813 16.542969 207.542969 18.691406 209.777344 18.691406 C 210.5 18.691406 211.160156 18.46875 211.707031 18.109375 C 212.074219 17.808594 212.441406 17.382813 212.785156 16.757813 Z M 206.410156 9.207031 C 206.082031 9.90625 205.878906 10.847656 205.757813 12.03125 L 211.546875 12.03125 C 211.519531 10.230469 210.769531 7.863281 208.609375 7.863281 L 208.277344 7.863281 C 207.554688 7.945313 206.886719 8.390625 206.410156 9.207031 M 198.035156 9.375 C 198.945313 10.425781 199.433594 11.898438 199.433594 13.351563 C 199.433594 16.816406 196.898438 19.3125 193.675781 19.289063 C 193.566406 19.289063 193.441406 19.289063 193.335938 19.269531 C 192.867188 19.25 192.46875 19.128906 192.054688 19.003906 C 191.039063 18.597656 190.726563 17.90625 190.726563 17.90625 L 190.726563 26.300781 L 186.667969 26.300781 L 186.667969 26.140625 C 186.835938 26.140625 188.308594 25.867188 188.308594 24.988281 L 188.308594 8.46875 C 188.308594 8.074219 187.90625 8.074219 187.765625 8.074219 L 187.765625 7.917969 L 190.664063 7.917969 L 190.664063 9.285156 C 191.128906 8.707031 192.554688 7.761719 194.546875 7.761719 C 195.839844 7.746094 197.140625 8.390625 198.035156 9.375 M 192.964844 18.679688 C 195.609375 18.679688 196.941406 15.851563 196.941406 13.253906 C 196.941406 11.914063 196.578125 10.554688 195.726563 9.566406 C 195.003906 8.757813 194.25 8.542969 193.207031 8.542969 C 192.316406 8.542969 190.699219 9.445313 190.699219 10.75 C 190.679688 10.875 190.675781 10.988281 190.675781 11.101563 L 190.710938 16.449219 C 190.75 16.683594 190.804688 16.914063 190.878906 17.144531 C 191.113281 17.898438 191.660156 18.351563 192.257813 18.554688 C 192.460938 18.640625 192.671875 18.679688 192.964844 18.679688 "/>
</g>
</svg>
